M48
;DRILL file {kicad 0.201502040101+5404~21~ubuntu14.04.1-product} date Fre 06 Feb 2015 15:41:59 CET
;FORMAT={2:4/ absolute / inch / suppress leading zeros}
FMAT,2
INCH,TZ
T1C0.025
T2C0.031
T3C0.047
%
G90
G05
M72
T1
X41100Y-38700
X42800Y-35900
X42800Y-36300
X42800Y-36700
X42800Y-37100
X42800Y-37500
X42800Y-38900
X42800Y-39300
X42800Y-39700
X42800Y-40100
X42800Y-40500
X43100Y-31700
X43200Y-35900
X43200Y-36300
X43200Y-40100
X43200Y-40500
X43600Y-35900
X43600Y-40500
X44200Y-35900
X44200Y-40500
X44600Y-35900
X44600Y-36300
X44600Y-40100
X44600Y-40500
X44700Y-30900
X44700Y-32500
X45000Y-35900
X45000Y-36300
X45000Y-36700
X45000Y-39700
X45000Y-40100
X45000Y-40500
X50100Y-32500
X50600Y-32500
X50600Y-43300
X51100Y-34500
X51300Y-40800
X51500Y-43300
X51700Y-41200
X52000Y-35300
X52000Y-35800
X52200Y-38500
X52200Y-44800
X52500Y-35300
X52500Y-35800
X52800Y-42200
X53000Y-35300
X53000Y-35800
X53500Y-35300
X53500Y-35800
X54000Y-35300
X54000Y-35800
X54000Y-40800
X54500Y-35300
X54500Y-35800
X54800Y-43650
X54800Y-44300
X55000Y-35300
X55000Y-35800
X55400Y-38500
X55400Y-42200
X55500Y-35300
X55500Y-35800
X56600Y-34100
X58800Y-32300
X65100Y-42400
T2
X39500Y-34106
X39500Y-34894
X45406Y-28400
X46194Y-28400
X64306Y-48300
X65094Y-48300
X72000Y-37856
X72000Y-38644
T3
X52262Y-47000
X54231Y-47000
X56200Y-47000
X58462Y-47000
X60431Y-47000
X62400Y-47000
T0
M30
