G04 #@! TF.FileFunction,Soldermask,Top*
%FSLAX46Y46*%
G04 Gerber Fmt 4.6, Leading zero omitted, Abs format (unit mm)*
G04 Created by KiCad (PCBNEW (2015-02-06 BZR 5410)-product) date Tue 10 Feb 2015 02:07:55 AM CET*
%MOMM*%
G01*
G04 APERTURE LIST*
%ADD10C,0.050000*%
%ADD11R,1.600200X3.599180*%
%ADD12R,1.143000X0.635000*%
%ADD13R,0.635000X1.143000*%
%ADD14R,1.900000X1.900000*%
%ADD15R,1.900000X1.800000*%
%ADD16R,1.600000X2.100000*%
%ADD17R,1.350000X0.400000*%
%ADD18R,1.800860X2.499360*%
%ADD19R,1.699260X1.300480*%
%ADD20R,1.198880X1.198880*%
%ADD21R,1.500000X1.500000*%
%ADD22C,1.500000*%
%ADD23R,2.150000X5.300000*%
%ADD24R,6.997700X10.800080*%
%ADD25R,2.286000X1.143000*%
%ADD26R,1.000760X0.800100*%
%ADD27R,4.000000X3.400000*%
%ADD28C,2.499360*%
%ADD29R,0.508000X1.143000*%
%ADD30R,0.508000X0.762000*%
%ADD31R,0.762000X1.143000*%
G04 APERTURE END LIST*
D10*
D11*
X147320000Y-81069180D03*
X147320000Y-86570820D03*
D12*
X128524000Y-98806000D03*
X128524000Y-100330000D03*
D13*
X165100000Y-118110000D03*
X163576000Y-118110000D03*
D12*
X128524000Y-112522000D03*
X128524000Y-110998000D03*
X132588000Y-110998000D03*
X132588000Y-112522000D03*
D11*
X154940000Y-102405180D03*
X154940000Y-107906820D03*
D13*
X110744000Y-100838000D03*
X112268000Y-100838000D03*
X110744000Y-93218000D03*
X112268000Y-93218000D03*
D11*
X120396000Y-81069180D03*
X120396000Y-86570820D03*
X137668000Y-81069180D03*
X137668000Y-86570820D03*
D13*
X123698000Y-88900000D03*
X122174000Y-88900000D03*
D14*
X100195000Y-98228000D03*
X100195000Y-95828000D03*
D15*
X100195000Y-101028000D03*
X100195000Y-93028000D03*
D16*
X102745000Y-93928000D03*
X102745000Y-100128000D03*
D17*
X102870000Y-95728000D03*
X102870000Y-96378000D03*
X102870000Y-98328000D03*
X102870000Y-97678000D03*
X102870000Y-97028000D03*
D18*
X178816000Y-95283020D03*
X178816000Y-99280980D03*
D19*
X124968000Y-100357940D03*
X124968000Y-103858060D03*
X124968000Y-107469940D03*
X124968000Y-110970060D03*
D18*
X106680000Y-99026980D03*
X106680000Y-95029020D03*
D20*
X116078000Y-98077020D03*
X116078000Y-95978980D03*
D18*
X137668000Y-72931020D03*
X137668000Y-76928980D03*
D20*
X112555020Y-72136000D03*
X110456980Y-72136000D03*
D21*
X100330000Y-88630000D03*
D22*
X100330000Y-86630000D03*
D23*
X127107000Y-73406000D03*
X130957000Y-73406000D03*
D21*
X163338000Y-122682000D03*
D22*
X165338000Y-122682000D03*
D24*
X172593000Y-89408000D03*
D25*
X161798000Y-91948000D03*
X161798000Y-86868000D03*
D24*
X172593000Y-105156000D03*
D25*
X161798000Y-107696000D03*
X161798000Y-102616000D03*
D26*
X117431820Y-75946000D03*
X115232180Y-76898500D03*
X115232180Y-74993500D03*
D12*
X134620000Y-100330000D03*
X134620000Y-98806000D03*
X134620000Y-112522000D03*
X134620000Y-110998000D03*
D27*
X161370000Y-76200000D03*
X171370000Y-76200000D03*
D12*
X130556000Y-100330000D03*
X130556000Y-98806000D03*
D13*
X163576000Y-120142000D03*
X165100000Y-120142000D03*
D12*
X130556000Y-110998000D03*
X130556000Y-112522000D03*
X132588000Y-100330000D03*
X132588000Y-98806000D03*
X137668000Y-112522000D03*
X137668000Y-110998000D03*
X140716000Y-112522000D03*
X140716000Y-110998000D03*
X158750000Y-90170000D03*
X158750000Y-88646000D03*
X136652000Y-100330000D03*
X136652000Y-98806000D03*
X138684000Y-100330000D03*
X138684000Y-98806000D03*
X142748000Y-112522000D03*
X142748000Y-110998000D03*
X142748000Y-98806000D03*
X142748000Y-100330000D03*
X140716000Y-98806000D03*
X140716000Y-100330000D03*
X114046000Y-97790000D03*
X114046000Y-99314000D03*
X114046000Y-96266000D03*
X114046000Y-94742000D03*
D13*
X121412000Y-72136000D03*
X119888000Y-72136000D03*
X130048000Y-90932000D03*
X128524000Y-90932000D03*
X110744000Y-74422000D03*
X112268000Y-74422000D03*
X110744000Y-82550000D03*
X112268000Y-82550000D03*
X110744000Y-76454000D03*
X112268000Y-76454000D03*
X128524000Y-88900000D03*
X130048000Y-88900000D03*
X127000000Y-88900000D03*
X125476000Y-88900000D03*
X112268000Y-80518000D03*
X110744000Y-80518000D03*
X110744000Y-78486000D03*
X112268000Y-78486000D03*
D28*
X153494740Y-119380000D03*
X148493480Y-119380000D03*
X158496000Y-119380000D03*
X137746740Y-119380000D03*
X132745480Y-119380000D03*
X142748000Y-119380000D03*
D21*
X182880000Y-98155000D03*
D22*
X182880000Y-96155000D03*
D21*
X115332000Y-72136000D03*
D22*
X117332000Y-72136000D03*
D29*
X133731000Y-108839000D03*
X132461000Y-108839000D03*
X131191000Y-108839000D03*
X129921000Y-108839000D03*
X129921000Y-102489000D03*
X131191000Y-102489000D03*
X132461000Y-102489000D03*
X133731000Y-102489000D03*
X141605000Y-108839000D03*
X140335000Y-108839000D03*
X139065000Y-108839000D03*
X137795000Y-108839000D03*
X137795000Y-102489000D03*
X139065000Y-102489000D03*
X140335000Y-102489000D03*
X141605000Y-102489000D03*
D30*
X112458500Y-95758000D03*
X110553500Y-95758000D03*
X112458500Y-98298000D03*
X111506000Y-95758000D03*
X110553500Y-98298000D03*
D31*
X129667000Y-86423500D03*
X130937000Y-86423500D03*
X128397000Y-86423500D03*
X127127000Y-86423500D03*
X127127000Y-81216500D03*
X128397000Y-81216500D03*
X130937000Y-81216500D03*
X129667000Y-81216500D03*
M02*
