G04 #@! TF.FileFunction,Copper,L2,Bot,Signal*
%FSLAX46Y46*%
G04 Gerber Fmt 4.6, Leading zero omitted, Abs format (unit mm)*
G04 Created by KiCad (PCBNEW 0.201502040101+5404~21~ubuntu14.04.1-product) date Fre 06 Feb 2015 15:42:55 CET*
%MOMM*%
G01*
G04 APERTURE LIST*
%ADD10C,0.050000*%
%ADD11R,1.500000X1.500000*%
%ADD12C,1.500000*%
%ADD13C,2.499360*%
%ADD14C,0.889000*%
%ADD15C,0.254000*%
G04 APERTURE END LIST*
D10*
D11*
X100330000Y-88630000D03*
D12*
X100330000Y-86630000D03*
D11*
X163338000Y-122682000D03*
D12*
X165338000Y-122682000D03*
D13*
X153494740Y-119380000D03*
X148493480Y-119380000D03*
X158496000Y-119380000D03*
X137746740Y-119380000D03*
X132745480Y-119380000D03*
X142748000Y-119380000D03*
D11*
X182880000Y-98155000D03*
D12*
X182880000Y-96155000D03*
D11*
X115332000Y-72136000D03*
D12*
X117332000Y-72136000D03*
D14*
X149352000Y-82042000D03*
X140716000Y-107188000D03*
X134112000Y-107188000D03*
X128524000Y-109982000D03*
X132588000Y-113792000D03*
X139192000Y-112522011D03*
X130302000Y-103632000D03*
X143764000Y-86614000D03*
X109474000Y-80518000D03*
X113284000Y-92202000D03*
X114300000Y-93218000D03*
X114300000Y-92202000D03*
X114300000Y-91186000D03*
X113284000Y-91186000D03*
X112268000Y-91186000D03*
X112268000Y-102870000D03*
X113284000Y-102870000D03*
X114300000Y-102870000D03*
X114300000Y-101854000D03*
X113284000Y-101854000D03*
X114300000Y-100838000D03*
X137160000Y-103632000D03*
X140716000Y-97790000D03*
X138430000Y-89662000D03*
X138430000Y-90932000D03*
X137160000Y-89662000D03*
X137160000Y-90932000D03*
X135890000Y-89662000D03*
X135890000Y-90932000D03*
X134620000Y-90932000D03*
X134620000Y-89662000D03*
X133350000Y-89662000D03*
X133350000Y-90932000D03*
X132080000Y-90932000D03*
X132080000Y-89662000D03*
X139700000Y-89662000D03*
X140970000Y-89662000D03*
X140970000Y-90932000D03*
X139700000Y-90932000D03*
X104394000Y-98298000D03*
X165354000Y-107696000D03*
X130810000Y-109982000D03*
X109728000Y-101854000D03*
X108712000Y-101854000D03*
X108712000Y-102870000D03*
X109728000Y-102870000D03*
X110744000Y-102870000D03*
X108712000Y-100838000D03*
X108712000Y-99822000D03*
X108712000Y-98806000D03*
X109728000Y-92202000D03*
X108712000Y-95250000D03*
X108712000Y-94234000D03*
X108712000Y-93218000D03*
X108712000Y-92202000D03*
X108712000Y-91186000D03*
X109728000Y-91186000D03*
X110744000Y-91186000D03*
X139192000Y-110870991D03*
X131318000Y-104648000D03*
X132588000Y-97790000D03*
X129794000Y-87630000D03*
X113538000Y-82550000D03*
X128524000Y-82550000D03*
X113538000Y-78486000D03*
X127254000Y-82550000D03*
D15*
X133350000Y-87884000D02*
X132334000Y-87884000D01*
X182880000Y-98155000D02*
X182483000Y-98552000D01*
X182483000Y-98552000D02*
X149352000Y-98552000D01*
X149352000Y-82042000D02*
X149352000Y-98552000D01*
X149352000Y-98552000D02*
X140716000Y-107188000D01*
X140716000Y-107188000D02*
X134112000Y-107188000D01*
X128524000Y-109982000D02*
X132334000Y-113792000D01*
X132334000Y-113792000D02*
X132588000Y-113792000D01*
X132588000Y-113792000D02*
X132588000Y-116332000D01*
X132588000Y-116332000D02*
X135128000Y-118872000D01*
X135128000Y-118872000D02*
X135128000Y-119634000D01*
X135128000Y-119634000D02*
X137160000Y-121666000D01*
X137160000Y-121666000D02*
X147261367Y-121666000D01*
X146812000Y-121666000D02*
X147261367Y-121666000D01*
X147261367Y-121666000D02*
X160528000Y-121666000D01*
X165354000Y-107696000D02*
X165354000Y-120211243D01*
X165354000Y-120211243D02*
X165354000Y-122666000D01*
X160528000Y-121666000D02*
X161982757Y-120211243D01*
X161982757Y-120211243D02*
X165354000Y-120211243D01*
X145796000Y-120650000D02*
X146812000Y-121666000D01*
X145796000Y-119126011D02*
X145796000Y-120650000D01*
X139192000Y-112522011D02*
X145796000Y-119126011D01*
X143764000Y-86614000D02*
X136652000Y-86614000D01*
X136652000Y-86614000D02*
X135382000Y-87884000D01*
X109474000Y-80518000D02*
X103362000Y-86630000D01*
X103362000Y-86630000D02*
X100330000Y-86630000D01*
X115332000Y-72136000D02*
X115316000Y-72136000D01*
X115316000Y-72136000D02*
X109474000Y-77978000D01*
X109474000Y-77978000D02*
X109474000Y-80518000D01*
X135382000Y-87884000D02*
X134366000Y-87884000D01*
X113284000Y-92202000D02*
X113284000Y-91186000D01*
X113030000Y-94488000D02*
X114300000Y-93218000D01*
X112268000Y-94488000D02*
X113030000Y-94488000D01*
X114300000Y-91186000D02*
X114300000Y-92202000D01*
X112268000Y-91186000D02*
X113284000Y-91186000D01*
X112268000Y-102870000D02*
X113284000Y-102870000D01*
X112522000Y-102616000D02*
X112522000Y-102736617D01*
X112522000Y-102736617D02*
X112655383Y-102870000D01*
X112655383Y-102870000D02*
X113284000Y-102870000D01*
X114300000Y-102870000D02*
X114300000Y-101854000D01*
X113284000Y-102870000D02*
X113284000Y-101854000D01*
X112268000Y-99568000D02*
X113538000Y-100838000D01*
X113538000Y-100838000D02*
X114300000Y-100838000D01*
X112268000Y-90932000D02*
X112268000Y-91186000D01*
X107966000Y-86630000D02*
X112268000Y-90932000D01*
X100330000Y-86630000D02*
X107966000Y-86630000D01*
X115062000Y-103632000D02*
X114300000Y-102870000D01*
X137160000Y-103632000D02*
X115062000Y-103632000D01*
X140716000Y-100076000D02*
X137160000Y-103632000D01*
X140716000Y-97790000D02*
X140716000Y-100076000D01*
X138430000Y-89662000D02*
X137160000Y-89662000D01*
X138430000Y-90932000D02*
X137160000Y-90932000D01*
X134620000Y-88900000D02*
X134683501Y-88963501D01*
X134366000Y-88646000D02*
X134683501Y-88963501D01*
X134620000Y-88392000D02*
X134620000Y-88900000D01*
X134683501Y-88963501D02*
X135191501Y-88963501D01*
X135191501Y-88963501D02*
X135890000Y-89662000D01*
X134620000Y-90303383D02*
X135248617Y-90303383D01*
X135248617Y-90303383D02*
X135890000Y-89662000D01*
X135890000Y-89662000D02*
X135890000Y-90932000D01*
X134620000Y-89662000D02*
X133350000Y-89662000D01*
X133350000Y-88392000D02*
X133350000Y-89662000D01*
X134620000Y-90932000D02*
X133350000Y-90932000D01*
X114300000Y-91186000D02*
X133096000Y-91186000D01*
X133096000Y-91186000D02*
X133350000Y-90932000D01*
X132080000Y-88392000D02*
X132080000Y-89662000D01*
X132080000Y-90932000D02*
X132080000Y-89662000D01*
X139700000Y-89662000D02*
X140970000Y-89662000D01*
X140970000Y-90932000D02*
X139700000Y-90932000D01*
X110998000Y-104648000D02*
X111823501Y-103822499D01*
X106934000Y-104648000D02*
X110998000Y-104648000D01*
X111823501Y-103314499D02*
X112268000Y-102870000D01*
X111823501Y-103822499D02*
X111823501Y-103314499D01*
X104394000Y-102108000D02*
X106934000Y-104648000D01*
X104394000Y-98298000D02*
X104394000Y-102108000D01*
X165354000Y-122666000D02*
X165338000Y-122682000D01*
X141986000Y-118618000D02*
X142748000Y-119380000D01*
X136652000Y-113284000D02*
X141986000Y-118618000D01*
X134112000Y-113284000D02*
X136652000Y-113284000D01*
X130810000Y-109982000D02*
X134112000Y-113284000D01*
X108712000Y-102616000D02*
X108712000Y-101600000D01*
X110744000Y-102616000D02*
X109728000Y-102616000D01*
X108712000Y-100838000D02*
X108712000Y-99822000D01*
X108712000Y-98806000D02*
X109474000Y-98044000D01*
X109728000Y-92202000D02*
X109728000Y-91186000D01*
X108712000Y-95250000D02*
X109474000Y-96012000D01*
X108712000Y-93218000D02*
X108712000Y-94234000D01*
X108712000Y-91186000D02*
X108712000Y-92202000D01*
X110744000Y-91186000D02*
X109728000Y-91186000D01*
X131318000Y-104648000D02*
X131889501Y-105219501D01*
X131889501Y-105219501D02*
X131889501Y-109791501D01*
X131889501Y-109791501D02*
X132968991Y-110870991D01*
X132968991Y-110870991D02*
X139192000Y-110870991D01*
X132588000Y-97790000D02*
X133604000Y-96774000D01*
X133604000Y-96774000D02*
X141224000Y-96774000D01*
X135747748Y-110045490D02*
X139763490Y-110045490D01*
X141224000Y-96774000D02*
X141732000Y-97282000D01*
X141732000Y-97282000D02*
X141732000Y-101600000D01*
X141732000Y-101600000D02*
X137160000Y-106172000D01*
X137160000Y-106172000D02*
X133858000Y-106172000D01*
X133858000Y-106172000D02*
X133286499Y-106743501D01*
X133286499Y-106743501D02*
X133286499Y-107584241D01*
X133286499Y-107584241D02*
X135747748Y-110045490D01*
X139763490Y-110045490D02*
X148493480Y-118775480D01*
X148493480Y-118775480D02*
X148493480Y-119380000D01*
X129794000Y-87630000D02*
X129794000Y-81788000D01*
X129794000Y-81788000D02*
X120142000Y-72136000D01*
X120142000Y-72136000D02*
X117332000Y-72136000D01*
X128524000Y-82550000D02*
X127000000Y-84074000D01*
X127000000Y-84074000D02*
X115062000Y-84074000D01*
X115062000Y-84074000D02*
X113538000Y-82550000D01*
X127254000Y-82550000D02*
X126492000Y-83312000D01*
X126492000Y-83312000D02*
X117348000Y-83312000D01*
X117348000Y-83312000D02*
X113538000Y-79502000D01*
X113538000Y-79502000D02*
X113538000Y-78486000D01*
G36*
X114935000Y-103505000D02*
X111635868Y-103505000D01*
X111658622Y-103482286D01*
X111823313Y-103085668D01*
X111823687Y-102656216D01*
X111659689Y-102259311D01*
X111379000Y-101978131D01*
X111379000Y-92077420D01*
X111658622Y-91798286D01*
X111823313Y-91401668D01*
X111823687Y-90972216D01*
X111659689Y-90575311D01*
X111635420Y-90551000D01*
X114935000Y-90551000D01*
X114935000Y-103505000D01*
X114935000Y-103505000D01*
G37*
X114935000Y-103505000D02*
X111635868Y-103505000D01*
X111658622Y-103482286D01*
X111823313Y-103085668D01*
X111823687Y-102656216D01*
X111659689Y-102259311D01*
X111379000Y-101978131D01*
X111379000Y-92077420D01*
X111658622Y-91798286D01*
X111823313Y-91401668D01*
X111823687Y-90972216D01*
X111659689Y-90575311D01*
X111635420Y-90551000D01*
X114935000Y-90551000D01*
X114935000Y-103505000D01*
G36*
X110871000Y-96647000D02*
X108077000Y-96647000D01*
X108077000Y-90551000D01*
X110809369Y-90551000D01*
X110871000Y-90612630D01*
X110871000Y-96647000D01*
X110871000Y-96647000D01*
G37*
X110871000Y-96647000D02*
X108077000Y-96647000D01*
X108077000Y-90551000D01*
X110809369Y-90551000D01*
X110871000Y-90612630D01*
X110871000Y-96647000D01*
G36*
X110871000Y-103505000D02*
X108077000Y-103505000D01*
X108077000Y-97409000D01*
X110871000Y-97409000D01*
X110871000Y-103505000D01*
X110871000Y-103505000D01*
G37*
X110871000Y-103505000D02*
X108077000Y-103505000D01*
X108077000Y-97409000D01*
X110871000Y-97409000D01*
X110871000Y-103505000D01*
G36*
X141859000Y-91567000D02*
X134112000Y-91567000D01*
X134112000Y-87884000D01*
X134053996Y-87592395D01*
X133888815Y-87345185D01*
X133641605Y-87180004D01*
X133350000Y-87122000D01*
X132334000Y-87122000D01*
X132042395Y-87180004D01*
X131795185Y-87345185D01*
X131630004Y-87592395D01*
X131572000Y-87884000D01*
X131630004Y-88175605D01*
X131795185Y-88422815D01*
X132042395Y-88587996D01*
X132334000Y-88646000D01*
X133350000Y-88646000D01*
X133641605Y-88587996D01*
X133888815Y-88422815D01*
X134053996Y-88175605D01*
X134112000Y-87884000D01*
X134112000Y-91567000D01*
X116205000Y-91567000D01*
X116205000Y-84963000D01*
X129032000Y-84963000D01*
X129032000Y-86865358D01*
X128879378Y-87017714D01*
X128714687Y-87414332D01*
X128714313Y-87843784D01*
X128878311Y-88240689D01*
X129181714Y-88544622D01*
X129578332Y-88709313D01*
X130007784Y-88709687D01*
X130404689Y-88545689D01*
X130708622Y-88242286D01*
X130873313Y-87845668D01*
X130873687Y-87416216D01*
X130709689Y-87019311D01*
X130556000Y-86865353D01*
X130556000Y-84963000D01*
X141859000Y-84963000D01*
X141859000Y-91567000D01*
X141859000Y-91567000D01*
G37*
X141859000Y-91567000D02*
X134112000Y-91567000D01*
X134112000Y-87884000D01*
X134053996Y-87592395D01*
X133888815Y-87345185D01*
X133641605Y-87180004D01*
X133350000Y-87122000D01*
X132334000Y-87122000D01*
X132042395Y-87180004D01*
X131795185Y-87345185D01*
X131630004Y-87592395D01*
X131572000Y-87884000D01*
X131630004Y-88175605D01*
X131795185Y-88422815D01*
X132042395Y-88587996D01*
X132334000Y-88646000D01*
X133350000Y-88646000D01*
X133641605Y-88587996D01*
X133888815Y-88422815D01*
X134053996Y-88175605D01*
X134112000Y-87884000D01*
X134112000Y-91567000D01*
X116205000Y-91567000D01*
X116205000Y-84963000D01*
X129032000Y-84963000D01*
X129032000Y-86865358D01*
X128879378Y-87017714D01*
X128714687Y-87414332D01*
X128714313Y-87843784D01*
X128878311Y-88240689D01*
X129181714Y-88544622D01*
X129578332Y-88709313D01*
X130007784Y-88709687D01*
X130404689Y-88545689D01*
X130708622Y-88242286D01*
X130873313Y-87845668D01*
X130873687Y-87416216D01*
X130709689Y-87019311D01*
X130556000Y-86865353D01*
X130556000Y-84963000D01*
X141859000Y-84963000D01*
X141859000Y-91567000D01*
G36*
X184785000Y-111501123D02*
X184532798Y-114779743D01*
X184277440Y-115443673D01*
X184277440Y-98905000D01*
X184277440Y-97405000D01*
X184230463Y-97162877D01*
X184090673Y-96950073D01*
X184058523Y-96928371D01*
X184264759Y-96431702D01*
X184265240Y-95880715D01*
X184054831Y-95371485D01*
X183665564Y-94981539D01*
X183156702Y-94770241D01*
X182605715Y-94769760D01*
X182096485Y-94980169D01*
X181706539Y-95369436D01*
X181495241Y-95878298D01*
X181494760Y-96429285D01*
X181700632Y-96927536D01*
X181675073Y-96944327D01*
X181532623Y-97155360D01*
X181482560Y-97405000D01*
X181482560Y-97790000D01*
X150114000Y-97790000D01*
X150114000Y-82806641D01*
X150266622Y-82654286D01*
X150431313Y-82257668D01*
X150431687Y-81828216D01*
X150267689Y-81431311D01*
X149964286Y-81127378D01*
X149567668Y-80962687D01*
X149138216Y-80962313D01*
X148741311Y-81126311D01*
X148437378Y-81429714D01*
X148272687Y-81826332D01*
X148272313Y-82255784D01*
X148436311Y-82652689D01*
X148590000Y-82806646D01*
X148590000Y-98236369D01*
X140717869Y-106108500D01*
X140502216Y-106108313D01*
X140105311Y-106272311D01*
X139951353Y-106426000D01*
X137983630Y-106426000D01*
X142270815Y-102138816D01*
X142270815Y-102138815D01*
X142435996Y-101891605D01*
X142493999Y-101600000D01*
X142494000Y-101600000D01*
X142494000Y-97282000D01*
X142435996Y-96990395D01*
X142270815Y-96743185D01*
X142270815Y-96743184D01*
X141762815Y-96235185D01*
X141515605Y-96070004D01*
X141224000Y-96012000D01*
X134112000Y-96012000D01*
X134112000Y-87884000D01*
X134053996Y-87592395D01*
X133888815Y-87345185D01*
X133641605Y-87180004D01*
X133350000Y-87122000D01*
X132334000Y-87122000D01*
X132042395Y-87180004D01*
X131795185Y-87345185D01*
X131630004Y-87592395D01*
X131572000Y-87884000D01*
X131630004Y-88175605D01*
X131795185Y-88422815D01*
X132042395Y-88587996D01*
X132334000Y-88646000D01*
X133350000Y-88646000D01*
X133641605Y-88587996D01*
X133888815Y-88422815D01*
X134053996Y-88175605D01*
X134112000Y-87884000D01*
X134112000Y-96012000D01*
X133604000Y-96012000D01*
X133312395Y-96070004D01*
X133065185Y-96235185D01*
X132589869Y-96710500D01*
X132374216Y-96710313D01*
X131977311Y-96874311D01*
X131673378Y-97177714D01*
X131508687Y-97574332D01*
X131508313Y-98003784D01*
X131672311Y-98400689D01*
X131975714Y-98704622D01*
X132372332Y-98869313D01*
X132801784Y-98869687D01*
X133198689Y-98705689D01*
X133502622Y-98402286D01*
X133667313Y-98005668D01*
X133667502Y-97788127D01*
X133919630Y-97536000D01*
X140908369Y-97536000D01*
X140970000Y-97597630D01*
X140970000Y-101284369D01*
X136844369Y-105410000D01*
X133858000Y-105410000D01*
X133566395Y-105468004D01*
X133319184Y-105633185D01*
X132747684Y-106204686D01*
X132651501Y-106348633D01*
X132651501Y-105219501D01*
X132593497Y-104927896D01*
X132428316Y-104680686D01*
X132428316Y-104680685D01*
X132397499Y-104649868D01*
X132397687Y-104434216D01*
X132233689Y-104037311D01*
X131930286Y-103733378D01*
X131533668Y-103568687D01*
X131104216Y-103568313D01*
X130873687Y-103663565D01*
X130873687Y-87416216D01*
X130709689Y-87019311D01*
X130556000Y-86865353D01*
X130556000Y-81788000D01*
X130497996Y-81496395D01*
X130332815Y-81249185D01*
X130332815Y-81249184D01*
X120680815Y-71597185D01*
X120433605Y-71432004D01*
X120142000Y-71374000D01*
X118515720Y-71374000D01*
X118506831Y-71352485D01*
X118117564Y-70962539D01*
X117608702Y-70751241D01*
X117057715Y-70750760D01*
X116553232Y-70959207D01*
X116441698Y-70847673D01*
X116208309Y-70751000D01*
X115617750Y-70751000D01*
X115459000Y-70909750D01*
X115459000Y-72009000D01*
X115479000Y-72009000D01*
X115479000Y-72263000D01*
X115459000Y-72263000D01*
X115459000Y-73362250D01*
X115617750Y-73521000D01*
X116208309Y-73521000D01*
X116441698Y-73424327D01*
X116553592Y-73312432D01*
X117055298Y-73520759D01*
X117606285Y-73521240D01*
X118115515Y-73310831D01*
X118505461Y-72921564D01*
X118515245Y-72898000D01*
X119826369Y-72898000D01*
X128398759Y-81470390D01*
X128310216Y-81470313D01*
X127913311Y-81634311D01*
X127889223Y-81658356D01*
X127866286Y-81635378D01*
X127469668Y-81470687D01*
X127040216Y-81470313D01*
X126643311Y-81634311D01*
X126339378Y-81937714D01*
X126174687Y-82334332D01*
X126174499Y-82550000D01*
X117663630Y-82550000D01*
X115205000Y-80091369D01*
X115205000Y-73362250D01*
X115205000Y-72263000D01*
X115205000Y-72009000D01*
X115205000Y-70909750D01*
X115046250Y-70751000D01*
X114455691Y-70751000D01*
X114222302Y-70847673D01*
X114043673Y-71026301D01*
X113947000Y-71259690D01*
X113947000Y-71512309D01*
X113947000Y-71850250D01*
X114105750Y-72009000D01*
X115205000Y-72009000D01*
X115205000Y-72263000D01*
X114105750Y-72263000D01*
X113947000Y-72421750D01*
X113947000Y-72759691D01*
X113947000Y-73012310D01*
X114043673Y-73245699D01*
X114222302Y-73424327D01*
X114455691Y-73521000D01*
X115046250Y-73521000D01*
X115205000Y-73362250D01*
X115205000Y-80091369D01*
X114332164Y-79218533D01*
X114452622Y-79098286D01*
X114617313Y-78701668D01*
X114617687Y-78272216D01*
X114453689Y-77875311D01*
X114150286Y-77571378D01*
X113753668Y-77406687D01*
X113324216Y-77406313D01*
X112927311Y-77570311D01*
X112623378Y-77873714D01*
X112458687Y-78270332D01*
X112458313Y-78699784D01*
X112622311Y-79096689D01*
X112776000Y-79250646D01*
X112776000Y-79502000D01*
X112834004Y-79793605D01*
X112999185Y-80040815D01*
X116270369Y-83312000D01*
X115377630Y-83312000D01*
X114617499Y-82551868D01*
X114617687Y-82336216D01*
X114453689Y-81939311D01*
X114150286Y-81635378D01*
X113753668Y-81470687D01*
X113324216Y-81470313D01*
X112927311Y-81634311D01*
X112623378Y-81937714D01*
X112458687Y-82334332D01*
X112458313Y-82763784D01*
X112622311Y-83160689D01*
X112925714Y-83464622D01*
X113322332Y-83629313D01*
X113539872Y-83629502D01*
X114523184Y-84612815D01*
X114523185Y-84612815D01*
X114770395Y-84777996D01*
X115062000Y-84836000D01*
X127000000Y-84836000D01*
X127000000Y-84835999D01*
X127291604Y-84777996D01*
X127291605Y-84777996D01*
X127538815Y-84612815D01*
X128522131Y-83629499D01*
X128737784Y-83629687D01*
X129032000Y-83508119D01*
X129032000Y-86865358D01*
X128879378Y-87017714D01*
X128714687Y-87414332D01*
X128714313Y-87843784D01*
X128878311Y-88240689D01*
X129181714Y-88544622D01*
X129578332Y-88709313D01*
X130007784Y-88709687D01*
X130404689Y-88545689D01*
X130708622Y-88242286D01*
X130873313Y-87845668D01*
X130873687Y-87416216D01*
X130873687Y-103663565D01*
X130707311Y-103732311D01*
X130403378Y-104035714D01*
X130238687Y-104432332D01*
X130238313Y-104861784D01*
X130402311Y-105258689D01*
X130705714Y-105562622D01*
X131102332Y-105727313D01*
X131127501Y-105727334D01*
X131127501Y-108944971D01*
X131025668Y-108902687D01*
X130596216Y-108902313D01*
X130199311Y-109066311D01*
X129895378Y-109369714D01*
X129730687Y-109766332D01*
X129730313Y-110195784D01*
X129894311Y-110592689D01*
X130197714Y-110896622D01*
X130594332Y-111061313D01*
X130811872Y-111061502D01*
X133573185Y-113822815D01*
X133820395Y-113987996D01*
X134112000Y-114046000D01*
X136336370Y-114046000D01*
X140989867Y-118699497D01*
X140863648Y-119003469D01*
X140862994Y-119753241D01*
X141149314Y-120446191D01*
X141679021Y-120976822D01*
X142371469Y-121264352D01*
X143121241Y-121265006D01*
X143814191Y-120978686D01*
X144344822Y-120448979D01*
X144632352Y-119756531D01*
X144633006Y-119006759D01*
X144346686Y-118313809D01*
X143816979Y-117783178D01*
X143124531Y-117495648D01*
X142374759Y-117494994D01*
X142067556Y-117621926D01*
X137190815Y-112745185D01*
X136943605Y-112580004D01*
X136652000Y-112522000D01*
X134427630Y-112522000D01*
X133538620Y-111632991D01*
X138427358Y-111632991D01*
X138579714Y-111785613D01*
X138976332Y-111950304D01*
X139405784Y-111950678D01*
X139802689Y-111786680D01*
X140106622Y-111483277D01*
X140111617Y-111471247D01*
X146924047Y-118283678D01*
X146896658Y-118311021D01*
X146609128Y-119003469D01*
X146608474Y-119753241D01*
X146894794Y-120446191D01*
X147424501Y-120976822D01*
X148116949Y-121264352D01*
X148866721Y-121265006D01*
X149559671Y-120978686D01*
X150090302Y-120448979D01*
X150377832Y-119756531D01*
X150378486Y-119006759D01*
X150092166Y-118313809D01*
X149562459Y-117783178D01*
X148870011Y-117495648D01*
X148290773Y-117495142D01*
X140302305Y-109506675D01*
X140055095Y-109341494D01*
X139763490Y-109283490D01*
X136063378Y-109283490D01*
X134803203Y-108023315D01*
X134876646Y-107950000D01*
X139951358Y-107950000D01*
X140103714Y-108102622D01*
X140500332Y-108267313D01*
X140929784Y-108267687D01*
X141326689Y-108103689D01*
X141630622Y-107800286D01*
X141795313Y-107403668D01*
X141795502Y-107186127D01*
X149667630Y-99314000D01*
X181639157Y-99314000D01*
X181669327Y-99359927D01*
X181880360Y-99502377D01*
X182130000Y-99552440D01*
X183630000Y-99552440D01*
X183872123Y-99505463D01*
X184084927Y-99365673D01*
X184227377Y-99154640D01*
X184277440Y-98905000D01*
X184277440Y-115443673D01*
X183275804Y-118047927D01*
X181770071Y-120055572D01*
X179504088Y-122069780D01*
X177242340Y-123326306D01*
X174727208Y-124080846D01*
X172205666Y-124333000D01*
X166735201Y-124333000D01*
X166735201Y-122886829D01*
X166707230Y-122336552D01*
X166550460Y-121958077D01*
X166309517Y-121890088D01*
X165517605Y-122682000D01*
X166309517Y-123473912D01*
X166550460Y-123405923D01*
X166735201Y-122886829D01*
X166735201Y-124333000D01*
X166129912Y-124333000D01*
X166129912Y-123653517D01*
X165338000Y-122861605D01*
X165323857Y-122875747D01*
X165144252Y-122696142D01*
X165158395Y-122682000D01*
X165144252Y-122667857D01*
X165323857Y-122488252D01*
X165338000Y-122502395D01*
X166129912Y-121710483D01*
X166061923Y-121469540D01*
X165542829Y-121284799D01*
X164992552Y-121312770D01*
X164614077Y-121469540D01*
X164592937Y-121544456D01*
X164548673Y-121477073D01*
X164337640Y-121334623D01*
X164088000Y-121284560D01*
X162588000Y-121284560D01*
X162345877Y-121331537D01*
X162133073Y-121471327D01*
X161990623Y-121682360D01*
X161940560Y-121932000D01*
X161940560Y-123432000D01*
X161987537Y-123674123D01*
X162127327Y-123886927D01*
X162338360Y-124029377D01*
X162588000Y-124079440D01*
X164088000Y-124079440D01*
X164330123Y-124032463D01*
X164542927Y-123892673D01*
X164592746Y-123818867D01*
X164614077Y-123894460D01*
X165133171Y-124079201D01*
X165683448Y-124051230D01*
X166061923Y-123894460D01*
X166129912Y-123653517D01*
X166129912Y-124333000D01*
X160381006Y-124333000D01*
X160381006Y-119006759D01*
X160094686Y-118313809D01*
X159564979Y-117783178D01*
X158872531Y-117495648D01*
X158122759Y-117494994D01*
X157429809Y-117781314D01*
X156899178Y-118311021D01*
X156611648Y-119003469D01*
X156610994Y-119753241D01*
X156897314Y-120446191D01*
X157427021Y-120976822D01*
X158119469Y-121264352D01*
X158869241Y-121265006D01*
X159562191Y-120978686D01*
X160092822Y-120448979D01*
X160380352Y-119756531D01*
X160381006Y-119006759D01*
X160381006Y-124333000D01*
X155379746Y-124333000D01*
X155379746Y-119006759D01*
X155093426Y-118313809D01*
X154563719Y-117783178D01*
X153871271Y-117495648D01*
X153121499Y-117494994D01*
X152428549Y-117781314D01*
X151897918Y-118311021D01*
X151610388Y-119003469D01*
X151609734Y-119753241D01*
X151896054Y-120446191D01*
X152425761Y-120976822D01*
X153118209Y-121264352D01*
X153867981Y-121265006D01*
X154560931Y-120978686D01*
X155091562Y-120448979D01*
X155379092Y-119756531D01*
X155379746Y-119006759D01*
X155379746Y-124333000D01*
X139631746Y-124333000D01*
X139631746Y-119006759D01*
X139345426Y-118313809D01*
X138815719Y-117783178D01*
X138123271Y-117495648D01*
X137373499Y-117494994D01*
X136680549Y-117781314D01*
X136149918Y-118311021D01*
X135862388Y-119003469D01*
X135861734Y-119753241D01*
X136148054Y-120446191D01*
X136677761Y-120976822D01*
X137370209Y-121264352D01*
X138119981Y-121265006D01*
X138812931Y-120978686D01*
X139343562Y-120448979D01*
X139631092Y-119756531D01*
X139631746Y-119006759D01*
X139631746Y-124333000D01*
X134630486Y-124333000D01*
X134630486Y-119006759D01*
X134344166Y-118313809D01*
X133814459Y-117783178D01*
X133122011Y-117495648D01*
X132372239Y-117494994D01*
X131679289Y-117781314D01*
X131148658Y-118311021D01*
X130861128Y-119003469D01*
X130860474Y-119753241D01*
X131146794Y-120446191D01*
X131676501Y-120976822D01*
X132368949Y-121264352D01*
X133118721Y-121265006D01*
X133811671Y-120978686D01*
X134342302Y-120448979D01*
X134629832Y-119756531D01*
X134630486Y-119006759D01*
X134630486Y-124333000D01*
X111379000Y-124333000D01*
X111379000Y-103761420D01*
X111658622Y-103482286D01*
X111823313Y-103085668D01*
X111823687Y-102656216D01*
X111659689Y-102259311D01*
X111379000Y-101978131D01*
X111379000Y-92077420D01*
X111658622Y-91798286D01*
X111823313Y-91401668D01*
X111823687Y-90972216D01*
X111659689Y-90575311D01*
X111379000Y-90294131D01*
X111379000Y-90043000D01*
X101727440Y-90043000D01*
X101727440Y-89380000D01*
X101727440Y-87880000D01*
X101680463Y-87637877D01*
X101540673Y-87425073D01*
X101466867Y-87375253D01*
X101542460Y-87353923D01*
X101727201Y-86834829D01*
X101699230Y-86284552D01*
X101542460Y-85906077D01*
X101301517Y-85838088D01*
X101121912Y-86017693D01*
X101121912Y-85658483D01*
X101053923Y-85417540D01*
X100534829Y-85232799D01*
X99984552Y-85260770D01*
X99606077Y-85417540D01*
X99538088Y-85658483D01*
X100330000Y-86450395D01*
X101121912Y-85658483D01*
X101121912Y-86017693D01*
X100509605Y-86630000D01*
X100523747Y-86644142D01*
X100344142Y-86823747D01*
X100330000Y-86809605D01*
X100315857Y-86823747D01*
X100136252Y-86644142D01*
X100150395Y-86630000D01*
X99358483Y-85838088D01*
X99117540Y-85906077D01*
X98932799Y-86425171D01*
X98960770Y-86975448D01*
X99117540Y-87353923D01*
X99192456Y-87375062D01*
X99125073Y-87419327D01*
X98982623Y-87630360D01*
X98932560Y-87880000D01*
X98932560Y-89380000D01*
X98979537Y-89622123D01*
X99119327Y-89834927D01*
X99330360Y-89977377D01*
X99580000Y-90027440D01*
X101080000Y-90027440D01*
X101322123Y-89980463D01*
X101534927Y-89840673D01*
X101677377Y-89629640D01*
X101727440Y-89380000D01*
X101727440Y-90043000D01*
X98425000Y-90043000D01*
X98425000Y-87630000D01*
X98425000Y-81543026D01*
X98675768Y-79787647D01*
X99430573Y-77774834D01*
X100186894Y-76262193D01*
X101443751Y-74251221D01*
X103453956Y-72492292D01*
X105465969Y-71234784D01*
X108232458Y-70228788D01*
X110750334Y-69977000D01*
X173213536Y-69977000D01*
X176486719Y-70732350D01*
X179001956Y-71989968D01*
X181262928Y-73748502D01*
X183024592Y-76265165D01*
X184027867Y-78271716D01*
X184279065Y-79778899D01*
X184785000Y-82308575D01*
X184785000Y-111501123D01*
X184785000Y-111501123D01*
G37*
X184785000Y-111501123D02*
X184532798Y-114779743D01*
X184277440Y-115443673D01*
X184277440Y-98905000D01*
X184277440Y-97405000D01*
X184230463Y-97162877D01*
X184090673Y-96950073D01*
X184058523Y-96928371D01*
X184264759Y-96431702D01*
X184265240Y-95880715D01*
X184054831Y-95371485D01*
X183665564Y-94981539D01*
X183156702Y-94770241D01*
X182605715Y-94769760D01*
X182096485Y-94980169D01*
X181706539Y-95369436D01*
X181495241Y-95878298D01*
X181494760Y-96429285D01*
X181700632Y-96927536D01*
X181675073Y-96944327D01*
X181532623Y-97155360D01*
X181482560Y-97405000D01*
X181482560Y-97790000D01*
X150114000Y-97790000D01*
X150114000Y-82806641D01*
X150266622Y-82654286D01*
X150431313Y-82257668D01*
X150431687Y-81828216D01*
X150267689Y-81431311D01*
X149964286Y-81127378D01*
X149567668Y-80962687D01*
X149138216Y-80962313D01*
X148741311Y-81126311D01*
X148437378Y-81429714D01*
X148272687Y-81826332D01*
X148272313Y-82255784D01*
X148436311Y-82652689D01*
X148590000Y-82806646D01*
X148590000Y-98236369D01*
X140717869Y-106108500D01*
X140502216Y-106108313D01*
X140105311Y-106272311D01*
X139951353Y-106426000D01*
X137983630Y-106426000D01*
X142270815Y-102138816D01*
X142270815Y-102138815D01*
X142435996Y-101891605D01*
X142493999Y-101600000D01*
X142494000Y-101600000D01*
X142494000Y-97282000D01*
X142435996Y-96990395D01*
X142270815Y-96743185D01*
X142270815Y-96743184D01*
X141762815Y-96235185D01*
X141515605Y-96070004D01*
X141224000Y-96012000D01*
X134112000Y-96012000D01*
X134112000Y-87884000D01*
X134053996Y-87592395D01*
X133888815Y-87345185D01*
X133641605Y-87180004D01*
X133350000Y-87122000D01*
X132334000Y-87122000D01*
X132042395Y-87180004D01*
X131795185Y-87345185D01*
X131630004Y-87592395D01*
X131572000Y-87884000D01*
X131630004Y-88175605D01*
X131795185Y-88422815D01*
X132042395Y-88587996D01*
X132334000Y-88646000D01*
X133350000Y-88646000D01*
X133641605Y-88587996D01*
X133888815Y-88422815D01*
X134053996Y-88175605D01*
X134112000Y-87884000D01*
X134112000Y-96012000D01*
X133604000Y-96012000D01*
X133312395Y-96070004D01*
X133065185Y-96235185D01*
X132589869Y-96710500D01*
X132374216Y-96710313D01*
X131977311Y-96874311D01*
X131673378Y-97177714D01*
X131508687Y-97574332D01*
X131508313Y-98003784D01*
X131672311Y-98400689D01*
X131975714Y-98704622D01*
X132372332Y-98869313D01*
X132801784Y-98869687D01*
X133198689Y-98705689D01*
X133502622Y-98402286D01*
X133667313Y-98005668D01*
X133667502Y-97788127D01*
X133919630Y-97536000D01*
X140908369Y-97536000D01*
X140970000Y-97597630D01*
X140970000Y-101284369D01*
X136844369Y-105410000D01*
X133858000Y-105410000D01*
X133566395Y-105468004D01*
X133319184Y-105633185D01*
X132747684Y-106204686D01*
X132651501Y-106348633D01*
X132651501Y-105219501D01*
X132593497Y-104927896D01*
X132428316Y-104680686D01*
X132428316Y-104680685D01*
X132397499Y-104649868D01*
X132397687Y-104434216D01*
X132233689Y-104037311D01*
X131930286Y-103733378D01*
X131533668Y-103568687D01*
X131104216Y-103568313D01*
X130873687Y-103663565D01*
X130873687Y-87416216D01*
X130709689Y-87019311D01*
X130556000Y-86865353D01*
X130556000Y-81788000D01*
X130497996Y-81496395D01*
X130332815Y-81249185D01*
X130332815Y-81249184D01*
X120680815Y-71597185D01*
X120433605Y-71432004D01*
X120142000Y-71374000D01*
X118515720Y-71374000D01*
X118506831Y-71352485D01*
X118117564Y-70962539D01*
X117608702Y-70751241D01*
X117057715Y-70750760D01*
X116553232Y-70959207D01*
X116441698Y-70847673D01*
X116208309Y-70751000D01*
X115617750Y-70751000D01*
X115459000Y-70909750D01*
X115459000Y-72009000D01*
X115479000Y-72009000D01*
X115479000Y-72263000D01*
X115459000Y-72263000D01*
X115459000Y-73362250D01*
X115617750Y-73521000D01*
X116208309Y-73521000D01*
X116441698Y-73424327D01*
X116553592Y-73312432D01*
X117055298Y-73520759D01*
X117606285Y-73521240D01*
X118115515Y-73310831D01*
X118505461Y-72921564D01*
X118515245Y-72898000D01*
X119826369Y-72898000D01*
X128398759Y-81470390D01*
X128310216Y-81470313D01*
X127913311Y-81634311D01*
X127889223Y-81658356D01*
X127866286Y-81635378D01*
X127469668Y-81470687D01*
X127040216Y-81470313D01*
X126643311Y-81634311D01*
X126339378Y-81937714D01*
X126174687Y-82334332D01*
X126174499Y-82550000D01*
X117663630Y-82550000D01*
X115205000Y-80091369D01*
X115205000Y-73362250D01*
X115205000Y-72263000D01*
X115205000Y-72009000D01*
X115205000Y-70909750D01*
X115046250Y-70751000D01*
X114455691Y-70751000D01*
X114222302Y-70847673D01*
X114043673Y-71026301D01*
X113947000Y-71259690D01*
X113947000Y-71512309D01*
X113947000Y-71850250D01*
X114105750Y-72009000D01*
X115205000Y-72009000D01*
X115205000Y-72263000D01*
X114105750Y-72263000D01*
X113947000Y-72421750D01*
X113947000Y-72759691D01*
X113947000Y-73012310D01*
X114043673Y-73245699D01*
X114222302Y-73424327D01*
X114455691Y-73521000D01*
X115046250Y-73521000D01*
X115205000Y-73362250D01*
X115205000Y-80091369D01*
X114332164Y-79218533D01*
X114452622Y-79098286D01*
X114617313Y-78701668D01*
X114617687Y-78272216D01*
X114453689Y-77875311D01*
X114150286Y-77571378D01*
X113753668Y-77406687D01*
X113324216Y-77406313D01*
X112927311Y-77570311D01*
X112623378Y-77873714D01*
X112458687Y-78270332D01*
X112458313Y-78699784D01*
X112622311Y-79096689D01*
X112776000Y-79250646D01*
X112776000Y-79502000D01*
X112834004Y-79793605D01*
X112999185Y-80040815D01*
X116270369Y-83312000D01*
X115377630Y-83312000D01*
X114617499Y-82551868D01*
X114617687Y-82336216D01*
X114453689Y-81939311D01*
X114150286Y-81635378D01*
X113753668Y-81470687D01*
X113324216Y-81470313D01*
X112927311Y-81634311D01*
X112623378Y-81937714D01*
X112458687Y-82334332D01*
X112458313Y-82763784D01*
X112622311Y-83160689D01*
X112925714Y-83464622D01*
X113322332Y-83629313D01*
X113539872Y-83629502D01*
X114523184Y-84612815D01*
X114523185Y-84612815D01*
X114770395Y-84777996D01*
X115062000Y-84836000D01*
X127000000Y-84836000D01*
X127000000Y-84835999D01*
X127291604Y-84777996D01*
X127291605Y-84777996D01*
X127538815Y-84612815D01*
X128522131Y-83629499D01*
X128737784Y-83629687D01*
X129032000Y-83508119D01*
X129032000Y-86865358D01*
X128879378Y-87017714D01*
X128714687Y-87414332D01*
X128714313Y-87843784D01*
X128878311Y-88240689D01*
X129181714Y-88544622D01*
X129578332Y-88709313D01*
X130007784Y-88709687D01*
X130404689Y-88545689D01*
X130708622Y-88242286D01*
X130873313Y-87845668D01*
X130873687Y-87416216D01*
X130873687Y-103663565D01*
X130707311Y-103732311D01*
X130403378Y-104035714D01*
X130238687Y-104432332D01*
X130238313Y-104861784D01*
X130402311Y-105258689D01*
X130705714Y-105562622D01*
X131102332Y-105727313D01*
X131127501Y-105727334D01*
X131127501Y-108944971D01*
X131025668Y-108902687D01*
X130596216Y-108902313D01*
X130199311Y-109066311D01*
X129895378Y-109369714D01*
X129730687Y-109766332D01*
X129730313Y-110195784D01*
X129894311Y-110592689D01*
X130197714Y-110896622D01*
X130594332Y-111061313D01*
X130811872Y-111061502D01*
X133573185Y-113822815D01*
X133820395Y-113987996D01*
X134112000Y-114046000D01*
X136336370Y-114046000D01*
X140989867Y-118699497D01*
X140863648Y-119003469D01*
X140862994Y-119753241D01*
X141149314Y-120446191D01*
X141679021Y-120976822D01*
X142371469Y-121264352D01*
X143121241Y-121265006D01*
X143814191Y-120978686D01*
X144344822Y-120448979D01*
X144632352Y-119756531D01*
X144633006Y-119006759D01*
X144346686Y-118313809D01*
X143816979Y-117783178D01*
X143124531Y-117495648D01*
X142374759Y-117494994D01*
X142067556Y-117621926D01*
X137190815Y-112745185D01*
X136943605Y-112580004D01*
X136652000Y-112522000D01*
X134427630Y-112522000D01*
X133538620Y-111632991D01*
X138427358Y-111632991D01*
X138579714Y-111785613D01*
X138976332Y-111950304D01*
X139405784Y-111950678D01*
X139802689Y-111786680D01*
X140106622Y-111483277D01*
X140111617Y-111471247D01*
X146924047Y-118283678D01*
X146896658Y-118311021D01*
X146609128Y-119003469D01*
X146608474Y-119753241D01*
X146894794Y-120446191D01*
X147424501Y-120976822D01*
X148116949Y-121264352D01*
X148866721Y-121265006D01*
X149559671Y-120978686D01*
X150090302Y-120448979D01*
X150377832Y-119756531D01*
X150378486Y-119006759D01*
X150092166Y-118313809D01*
X149562459Y-117783178D01*
X148870011Y-117495648D01*
X148290773Y-117495142D01*
X140302305Y-109506675D01*
X140055095Y-109341494D01*
X139763490Y-109283490D01*
X136063378Y-109283490D01*
X134803203Y-108023315D01*
X134876646Y-107950000D01*
X139951358Y-107950000D01*
X140103714Y-108102622D01*
X140500332Y-108267313D01*
X140929784Y-108267687D01*
X141326689Y-108103689D01*
X141630622Y-107800286D01*
X141795313Y-107403668D01*
X141795502Y-107186127D01*
X149667630Y-99314000D01*
X181639157Y-99314000D01*
X181669327Y-99359927D01*
X181880360Y-99502377D01*
X182130000Y-99552440D01*
X183630000Y-99552440D01*
X183872123Y-99505463D01*
X184084927Y-99365673D01*
X184227377Y-99154640D01*
X184277440Y-98905000D01*
X184277440Y-115443673D01*
X183275804Y-118047927D01*
X181770071Y-120055572D01*
X179504088Y-122069780D01*
X177242340Y-123326306D01*
X174727208Y-124080846D01*
X172205666Y-124333000D01*
X166735201Y-124333000D01*
X166735201Y-122886829D01*
X166707230Y-122336552D01*
X166550460Y-121958077D01*
X166309517Y-121890088D01*
X165517605Y-122682000D01*
X166309517Y-123473912D01*
X166550460Y-123405923D01*
X166735201Y-122886829D01*
X166735201Y-124333000D01*
X166129912Y-124333000D01*
X166129912Y-123653517D01*
X165338000Y-122861605D01*
X165323857Y-122875747D01*
X165144252Y-122696142D01*
X165158395Y-122682000D01*
X165144252Y-122667857D01*
X165323857Y-122488252D01*
X165338000Y-122502395D01*
X166129912Y-121710483D01*
X166061923Y-121469540D01*
X165542829Y-121284799D01*
X164992552Y-121312770D01*
X164614077Y-121469540D01*
X164592937Y-121544456D01*
X164548673Y-121477073D01*
X164337640Y-121334623D01*
X164088000Y-121284560D01*
X162588000Y-121284560D01*
X162345877Y-121331537D01*
X162133073Y-121471327D01*
X161990623Y-121682360D01*
X161940560Y-121932000D01*
X161940560Y-123432000D01*
X161987537Y-123674123D01*
X162127327Y-123886927D01*
X162338360Y-124029377D01*
X162588000Y-124079440D01*
X164088000Y-124079440D01*
X164330123Y-124032463D01*
X164542927Y-123892673D01*
X164592746Y-123818867D01*
X164614077Y-123894460D01*
X165133171Y-124079201D01*
X165683448Y-124051230D01*
X166061923Y-123894460D01*
X166129912Y-123653517D01*
X166129912Y-124333000D01*
X160381006Y-124333000D01*
X160381006Y-119006759D01*
X160094686Y-118313809D01*
X159564979Y-117783178D01*
X158872531Y-117495648D01*
X158122759Y-117494994D01*
X157429809Y-117781314D01*
X156899178Y-118311021D01*
X156611648Y-119003469D01*
X156610994Y-119753241D01*
X156897314Y-120446191D01*
X157427021Y-120976822D01*
X158119469Y-121264352D01*
X158869241Y-121265006D01*
X159562191Y-120978686D01*
X160092822Y-120448979D01*
X160380352Y-119756531D01*
X160381006Y-119006759D01*
X160381006Y-124333000D01*
X155379746Y-124333000D01*
X155379746Y-119006759D01*
X155093426Y-118313809D01*
X154563719Y-117783178D01*
X153871271Y-117495648D01*
X153121499Y-117494994D01*
X152428549Y-117781314D01*
X151897918Y-118311021D01*
X151610388Y-119003469D01*
X151609734Y-119753241D01*
X151896054Y-120446191D01*
X152425761Y-120976822D01*
X153118209Y-121264352D01*
X153867981Y-121265006D01*
X154560931Y-120978686D01*
X155091562Y-120448979D01*
X155379092Y-119756531D01*
X155379746Y-119006759D01*
X155379746Y-124333000D01*
X139631746Y-124333000D01*
X139631746Y-119006759D01*
X139345426Y-118313809D01*
X138815719Y-117783178D01*
X138123271Y-117495648D01*
X137373499Y-117494994D01*
X136680549Y-117781314D01*
X136149918Y-118311021D01*
X135862388Y-119003469D01*
X135861734Y-119753241D01*
X136148054Y-120446191D01*
X136677761Y-120976822D01*
X137370209Y-121264352D01*
X138119981Y-121265006D01*
X138812931Y-120978686D01*
X139343562Y-120448979D01*
X139631092Y-119756531D01*
X139631746Y-119006759D01*
X139631746Y-124333000D01*
X134630486Y-124333000D01*
X134630486Y-119006759D01*
X134344166Y-118313809D01*
X133814459Y-117783178D01*
X133122011Y-117495648D01*
X132372239Y-117494994D01*
X131679289Y-117781314D01*
X131148658Y-118311021D01*
X130861128Y-119003469D01*
X130860474Y-119753241D01*
X131146794Y-120446191D01*
X131676501Y-120976822D01*
X132368949Y-121264352D01*
X133118721Y-121265006D01*
X133811671Y-120978686D01*
X134342302Y-120448979D01*
X134629832Y-119756531D01*
X134630486Y-119006759D01*
X134630486Y-124333000D01*
X111379000Y-124333000D01*
X111379000Y-103761420D01*
X111658622Y-103482286D01*
X111823313Y-103085668D01*
X111823687Y-102656216D01*
X111659689Y-102259311D01*
X111379000Y-101978131D01*
X111379000Y-92077420D01*
X111658622Y-91798286D01*
X111823313Y-91401668D01*
X111823687Y-90972216D01*
X111659689Y-90575311D01*
X111379000Y-90294131D01*
X111379000Y-90043000D01*
X101727440Y-90043000D01*
X101727440Y-89380000D01*
X101727440Y-87880000D01*
X101680463Y-87637877D01*
X101540673Y-87425073D01*
X101466867Y-87375253D01*
X101542460Y-87353923D01*
X101727201Y-86834829D01*
X101699230Y-86284552D01*
X101542460Y-85906077D01*
X101301517Y-85838088D01*
X101121912Y-86017693D01*
X101121912Y-85658483D01*
X101053923Y-85417540D01*
X100534829Y-85232799D01*
X99984552Y-85260770D01*
X99606077Y-85417540D01*
X99538088Y-85658483D01*
X100330000Y-86450395D01*
X101121912Y-85658483D01*
X101121912Y-86017693D01*
X100509605Y-86630000D01*
X100523747Y-86644142D01*
X100344142Y-86823747D01*
X100330000Y-86809605D01*
X100315857Y-86823747D01*
X100136252Y-86644142D01*
X100150395Y-86630000D01*
X99358483Y-85838088D01*
X99117540Y-85906077D01*
X98932799Y-86425171D01*
X98960770Y-86975448D01*
X99117540Y-87353923D01*
X99192456Y-87375062D01*
X99125073Y-87419327D01*
X98982623Y-87630360D01*
X98932560Y-87880000D01*
X98932560Y-89380000D01*
X98979537Y-89622123D01*
X99119327Y-89834927D01*
X99330360Y-89977377D01*
X99580000Y-90027440D01*
X101080000Y-90027440D01*
X101322123Y-89980463D01*
X101534927Y-89840673D01*
X101677377Y-89629640D01*
X101727440Y-89380000D01*
X101727440Y-90043000D01*
X98425000Y-90043000D01*
X98425000Y-87630000D01*
X98425000Y-81543026D01*
X98675768Y-79787647D01*
X99430573Y-77774834D01*
X100186894Y-76262193D01*
X101443751Y-74251221D01*
X103453956Y-72492292D01*
X105465969Y-71234784D01*
X108232458Y-70228788D01*
X110750334Y-69977000D01*
X173213536Y-69977000D01*
X176486719Y-70732350D01*
X179001956Y-71989968D01*
X181262928Y-73748502D01*
X183024592Y-76265165D01*
X184027867Y-78271716D01*
X184279065Y-79778899D01*
X184785000Y-82308575D01*
X184785000Y-111501123D01*
G36*
X111125000Y-124333000D02*
X109994575Y-124333000D01*
X108739870Y-124082059D01*
X106724327Y-123578173D01*
X104713709Y-122572864D01*
X102952370Y-121314765D01*
X101190695Y-119553090D01*
X99680138Y-117287255D01*
X98927940Y-115532127D01*
X98425000Y-113017425D01*
X98425000Y-90297000D01*
X107569000Y-90297000D01*
X107569000Y-104013000D01*
X111125000Y-104013000D01*
X111125000Y-124333000D01*
X111125000Y-124333000D01*
G37*
X111125000Y-124333000D02*
X109994575Y-124333000D01*
X108739870Y-124082059D01*
X106724327Y-123578173D01*
X104713709Y-122572864D01*
X102952370Y-121314765D01*
X101190695Y-119553090D01*
X99680138Y-117287255D01*
X98927940Y-115532127D01*
X98425000Y-113017425D01*
X98425000Y-90297000D01*
X107569000Y-90297000D01*
X107569000Y-104013000D01*
X111125000Y-104013000D01*
X111125000Y-124333000D01*
M02*
